<?xml version="1.0" encoding="UTF-8"?> <svg xmlns="http://www.w3.org/2000/svg" id="Layer_1" data-name="Layer 1" viewBox="0 0 1000 343"> <defs> <style>.cls-1{fill:#141f78;}</style> </defs> <title>ShOU logo</title> <path class="cls-1" d="M591.11,112.61a10.08,10.08,0,0,1,0,1,.39.39,0,0,1-.44.4c-.48,0-.77-.31-.85-.93a7.68,7.68,0,0,0-.28-1.41,5.18,5.18,0,0,0-1.21-1.94,5.06,5.06,0,0,0-2-1.21,10.72,10.72,0,0,0-2.54-.36c-.94,0-1.79,0-2.55,0h-7.34a3.58,3.58,0,0,0-1.82.4,1.64,1.64,0,0,0-.68,1.53v18.49q0,.89.24,1a2.42,2.42,0,0,0,1.13.16h8.55a20.37,20.37,0,0,0,2.06-.12,3.18,3.18,0,0,0,1.82-.69,2.15,2.15,0,0,0,.81-1.25c.16-.56.29-1.13.4-1.69s.22-1.06.32-1.5.3-.64.57-.64.51.31.56.93.09,1.17.09,1.65c0,.76,0,1.54-.13,2.34s-.12,1.59-.12,2.34c0,1,0,2.09.08,3.19s.08,2.17.08,3.19a5.47,5.47,0,0,1-.08.93.53.53,0,0,1-.56.53c-.27,0-.46-.18-.57-.53a10.79,10.79,0,0,1-.28-1.29,11.31,11.31,0,0,0-.4-1.66A3.76,3.76,0,0,0,585,134a2.67,2.67,0,0,0-1.57-.52c-.79-.08-1.44-.13-2-.13h-9.29c-.43,0-.67.08-.72.25a2.59,2.59,0,0,0-.08.8v18.81a11.32,11.32,0,0,0,.12,1.74,2.37,2.37,0,0,0,.85,1.41,3.44,3.44,0,0,0,1.49.85,11,11,0,0,0,2,.4c.7.08,1.39.14,2.09.16s1.32,0,1.86,0c1.08,0,2.37,0,3.88-.12a12.25,12.25,0,0,0,3.87-.76,4.63,4.63,0,0,0,2-1.38,11,11,0,0,0,1.17-1.73,16,16,0,0,0,.69-1.45c.16-.41.37-.61.64-.61a.45.45,0,0,1,.49.36,3.48,3.48,0,0,1,.08.69,6.86,6.86,0,0,1-.53,2.06c-.35.94-.71,1.87-1.09,2.78a19,19,0,0,0-.68,2.1,3.8,3.8,0,0,1-.45,1.21,2.23,2.23,0,0,1-1.09.57,5.87,5.87,0,0,1-1.25.16q-4.85,0-10.45-.12t-10.46-.12c-1.34,0-2.81.05-4.4.16s-3,.16-4.4.16a13.16,13.16,0,0,1-1.77-.12c-.59-.08-.89-.34-.89-.77s.27-.52.81-.6l1.81-.29a9.62,9.62,0,0,0,2-.52,2.32,2.32,0,0,0,1.37-1.25,12.47,12.47,0,0,0,.61-3.31c.13-1.56.24-3.23.32-5s.12-3.47.12-5.08V111.07a4.53,4.53,0,0,0-1-3.31,5.77,5.77,0,0,0-2.26-1.45,11,11,0,0,0-2.26-.52c-.7-.08-1-.29-1-.61s.23-.51.69-.56a8.88,8.88,0,0,1,1.09-.09c.54,0,1.21,0,2,.09s1.63.09,2.46.12,1.65.06,2.46.12,1.48.08,2,.08q3.07,0,6.34,0t6.33-.12c.81,0,1.48,0,2,0l1.54-.08,1.57-.08c.57,0,1.25,0,2.06,0s1.47,0,2.14-.08,1.38-.08,2.14-.08c.37,0,.56.3.56.89a5.53,5.53,0,0,1,0,.69c0,.24,0,.41,0,.52,0,1,0,2,.12,3.07s.12,2.1.12,3.07m-42.94-7.43c0,.27-.18.47-.53.61a6.74,6.74,0,0,1-1.29.32c-.51.08-1.05.19-1.61.32a4.12,4.12,0,0,0-1.42.61,1.61,1.61,0,0,0-.64.77,6.21,6.21,0,0,0-.41,1.61q-.15,1.1-.24,2.91c0,1.21-.08,2.73-.08,4.56V158.3a33.53,33.53,0,0,1-.12,3.39c-.08.7-.28,1.05-.61,1.05s-.79-.3-1.41-.89-1.46-1.43-2.54-2.5l-37.54-37.7q-1.29-1.29-1.77-1.29c-.27,0-.43.2-.49.6s-.08,1.28-.08,2.63v28a18.76,18.76,0,0,0,.53,4.48,5.37,5.37,0,0,0,1.65,3,4,4,0,0,0,1.53.68c.6.14,1.16.24,1.7.32a11.85,11.85,0,0,1,1.37.29c.38.1.57.27.57.48a.7.7,0,0,1-.37.73,5,5,0,0,1-1.65.16c-.38,0-.88,0-1.49,0l-2-.12c-.73-.06-1.44-.1-2.14-.12s-1.32,0-1.86,0-1.24,0-2.1,0-1.72.06-2.58.12l-2.34.12-1.37,0a4.7,4.7,0,0,1-1.18-.12.57.57,0,0,1-.44-.61c0-.32.2-.54.61-.64a13.63,13.63,0,0,1,1.49-.29c.59-.08,1.21-.18,1.86-.32a4.07,4.07,0,0,0,1.69-.76,4.48,4.48,0,0,0,1.25-2.47,22.89,22.89,0,0,0,.45-5.2V107.92a32,32,0,0,1,.12-3.34c.08-.68.36-1,.85-1,.7,0,1.93.88,3.71,2.66l38,38.18c.65.76,1.16,1.13,1.53,1.13s.41-.53.41-1.61V114.38a32.73,32.73,0,0,0-.24-4.8,4.06,4.06,0,0,0-1.05-2.22,3.4,3.4,0,0,0-1.5-.89,14.37,14.37,0,0,0-1.57-.36c-.48-.08-.89-.16-1.21-.24s-.49-.26-.49-.53c0-.54.57-.81,1.7-.81.43,0,1.32.07,2.66.21s2.56.2,3.64.2c.53,0,1.14,0,1.81-.08s1.33-.1,2-.12,1.24-.07,1.78-.12a11.79,11.79,0,0,1,1.21-.09,12,12,0,0,1,1.61.09C548,104.67,548.17,104.86,548.17,105.18ZM479.71,161a.65.65,0,0,1-.4.61,1.86,1.86,0,0,1-.81.2l-1.41,0-2.79-.12c-1.07-.06-2.19-.1-3.35-.12s-2.22,0-3.18,0c-2.75,0-5.09.06-7,.2s-3.09.2-3.47.2c-1,0-1.45-.3-1.45-.89,0-.27.21-.46.64-.56s1-.2,1.54-.29,1.19-.18,1.81-.32a4,4,0,0,0,1.5-.6q1.85-1.38,1.85-7.83V112.45a14.52,14.52,0,0,0-.36-3.8,2.81,2.81,0,0,0-1.41-1.77,6.39,6.39,0,0,0-1.5-.61c-.51-.13-1-.24-1.37-.32s-.74-.16-1-.24-.4-.23-.4-.45c0-.38.22-.59.64-.64a8.47,8.47,0,0,1,1.13-.09l1.3.09c.75,0,1.58.09,2.5.12s1.84.06,2.78.12,1.69.08,2.22.08,1.27,0,2.18-.08,1.85-.12,2.79-.2l2.58-.21c.78,0,1.33-.08,1.66-.08a2.83,2.83,0,0,1,1.57.29.79.79,0,0,1,.36.6c0,.16-.17.3-.52.4s-.78.22-1.29.33l-1.58.32a3.87,3.87,0,0,0-1.29.48,2.84,2.84,0,0,0-1,1.13,6.37,6.37,0,0,0-.52,1.58,11,11,0,0,0-.2,1.73c0,.6,0,1.08,0,1.46v36.65c0,2.26.05,4.08.16,5.45a7.34,7.34,0,0,0,.81,3.15,3.68,3.68,0,0,0,1.89,1.57,14.81,14.81,0,0,0,3.43.73C479.36,160.34,479.71,160.59,479.71,161Zm-28.17-8.39a4.94,4.94,0,0,1-.2.85c-.14.45-.28,1-.45,1.53s-.33,1.14-.52,1.73-.34,1.08-.44,1.46a11.26,11.26,0,0,0-.49,1.69,7.42,7.42,0,0,0-.16,1c0,.75-.59,1.13-1.62,1.13l-2.94-.08c-1.7,0-3.73-.11-6.1-.16l-7.46-.16c-2.61-.06-5-.08-7.15-.08-.7,0-1.5,0-2.42,0s-1.82.06-2.7.12l-2.35.12-1.25,0a13,13,0,0,1-1.41-.08.68.68,0,0,1-.69-.73c0-.32.25-.54.73-.64s1.05-.21,1.7-.29a9.59,9.59,0,0,0,1.93-.44,2.61,2.61,0,0,0,1.46-1.13,6.12,6.12,0,0,0,.72-1.45,9.25,9.25,0,0,0,.37-1.9c.08-.78.12-1.76.12-3V113c0-1,0-1.75,0-2.34a10.62,10.62,0,0,0-.16-1.49,2.92,2.92,0,0,0-.41-1.05,9.89,9.89,0,0,0-.68-.93,2,2,0,0,0-1.05-.61c-.49-.13-1-.25-1.46-.36l-1.29-.32c-.38-.11-.56-.27-.56-.49,0-.43.16-.68.48-.76a4.68,4.68,0,0,1,1.13-.13c.16,0,.58,0,1.25.09s1.46.09,2.34.12,1.77.06,2.63.12,1.58.08,2.18.08,1.3,0,2.3-.08l3-.16c1-.06,1.89-.11,2.67-.17l1.41-.08a5.81,5.81,0,0,1,.93.13c.46.08.69.3.69.68s-.22.46-.65.57-.93.21-1.49.32a11.94,11.94,0,0,0-1.74.48,2.92,2.92,0,0,0-1.37,1,3.75,3.75,0,0,0-.77,2c-.08.81-.12,2-.12,3.55v32.54c0,1.29,0,2.52,0,3.71s.07,2.18.12,3a10.66,10.66,0,0,0,.65,3.14,2.43,2.43,0,0,0,1.69,1.78,16.91,16.91,0,0,0,3.84.44c1.48,0,2.73,0,3.75,0a25.55,25.55,0,0,0,4.24-.36,13.49,13.49,0,0,0,3-.77,3,3,0,0,0,1.49-1.25,13,13,0,0,0,1-1.85c.27-.62.51-1.17.73-1.66s.45-.73.72-.73a.64.64,0,0,1,.73.57A7.52,7.52,0,0,1,451.54,152.57Zm-45.29-47.39c0,.27-.17.47-.52.61a6.74,6.74,0,0,1-1.29.32c-.52.08-1.05.19-1.62.32a4.15,4.15,0,0,0-1.41.61,1.62,1.62,0,0,0-.65.77,6.29,6.29,0,0,0-.4,1.61,28.23,28.23,0,0,0-.24,2.91c-.06,1.21-.08,2.73-.08,4.56V158.3a33.53,33.53,0,0,1-.12,3.39c-.08.7-.29,1.05-.61,1.05s-.79-.3-1.41-.89-1.47-1.43-2.55-2.5l-37.53-37.7c-.86-.86-1.46-1.29-1.78-1.29s-.43.2-.48.6a24.22,24.22,0,0,0-.08,2.63v28a18.76,18.76,0,0,0,.52,4.48,5.37,5.37,0,0,0,1.65,3,4.07,4.07,0,0,0,1.54.68c.59.14,1.16.24,1.69.32a12.56,12.56,0,0,1,1.38.29c.37.1.56.27.56.48a.71.71,0,0,1-.36.73,5.11,5.11,0,0,1-1.66.16c-.37,0-.87,0-1.49,0l-2-.12c-.72-.06-1.44-.1-2.14-.12s-1.32,0-1.85,0-1.24,0-2.1,0-1.73.06-2.59.12l-2.34.12-1.37,0a4.67,4.67,0,0,1-1.17-.12.56.56,0,0,1-.44-.61c0-.32.2-.54.6-.64a13.63,13.63,0,0,1,1.49-.29c.6-.08,1.22-.18,1.86-.32a4.12,4.12,0,0,0,1.7-.76,4.61,4.61,0,0,0,1.25-2.47,23.6,23.6,0,0,0,.44-5.2V107.92a32,32,0,0,1,.12-3.34c.08-.68.37-1,.85-1,.7,0,1.94.88,3.71,2.66l38,38.18c.64.76,1.15,1.13,1.53,1.13s.4-.53.4-1.61V114.38a32.73,32.73,0,0,0-.24-4.8,4,4,0,0,0-1-2.22,3.42,3.42,0,0,0-1.49-.89,14.52,14.52,0,0,0-1.58-.36c-.48-.08-.88-.16-1.21-.24s-.48-.26-.48-.53c0-.54.56-.81,1.69-.81q.64,0,2.67.21c1.34.13,2.55.2,3.63.2.54,0,1.14,0,1.82-.08s1.33-.1,2-.12,1.24-.07,1.78-.12a10.94,10.94,0,0,1,2.83,0C406,104.67,406.25,104.86,406.25,105.18ZM328.51,136a44.7,44.7,0,0,0-1.29-10.73,31.14,31.14,0,0,0-3.92-9.35,21.42,21.42,0,0,0-6.49-6.6,16.16,16.16,0,0,0-9-2.51,15,15,0,0,0-8.72,2.39,18.24,18.24,0,0,0-5.57,6,26,26,0,0,0-3,7.73,37.25,37.25,0,0,0-.89,7.7A40.89,40.89,0,0,0,291.22,142a30,30,0,0,0,4.32,9.23,20.63,20.63,0,0,0,6.7,6.12,17.27,17.27,0,0,0,8.67,2.22,13.76,13.76,0,0,0,7.67-2.14,18.54,18.54,0,0,0,5.53-5.52,25.22,25.22,0,0,0,3.31-7.61A33.3,33.3,0,0,0,328.51,136Zm10.09-3.92a39.76,39.76,0,0,1-1.69,11.63,27.12,27.12,0,0,1-5.3,9.81,25.42,25.42,0,0,1-9.22,6.74,33,33,0,0,1-13.45,2.5,29.35,29.35,0,0,1-11.12-2.14,30.08,30.08,0,0,1-9.37-6,28.16,28.16,0,0,1-8.86-20.95,33.11,33.11,0,0,1,2.18-12.23,28.3,28.3,0,0,1,6.07-9.49,26.73,26.73,0,0,1,9.34-6.13,31.91,31.91,0,0,1,12-2.18,29.17,29.17,0,0,1,27.24,17.8A26.73,26.73,0,0,1,338.6,132.06ZM670.15,13c0,.16-.18.28-.53.36a10.42,10.42,0,0,1-1.29.2c-.51.06-1,.14-1.57.24a7.37,7.37,0,0,0-1.38.41,7.7,7.7,0,0,0-2.1,1.65,17.63,17.63,0,0,0-2.17,2.79L646.82,41.91a7.28,7.28,0,0,0-1.09,2.26,10,10,0,0,0-.21,2.26V58.78c0,.32,0,.83,0,1.53s.07,1.43.13,2.18a14.42,14.42,0,0,0,.28,2.1,3.36,3.36,0,0,0,.52,1.37,6.1,6.1,0,0,0,2,1.3,6.16,6.16,0,0,0,2.34.64c.27,0,.66,0,1.17.08s.77.27.77.65-.36.68-1.09.77-1.25.12-1.57.12c-1.24,0-2.69-.07-4.36-.21s-3.12-.2-4.36-.2c-.65,0-1.44,0-2.38.08s-1.91.1-2.91.12-2,.07-2.91.13-1.73.08-2.38.08c-.27,0-.64,0-1.13-.08s-.72-.3-.72-.73.25-.57.76-.73,1.12-.32,1.82-.48l2.06-.49a3.65,3.65,0,0,0,1.49-.64,2.49,2.49,0,0,0,.73-1.21,11.37,11.37,0,0,0,.36-1.7,12.91,12.91,0,0,0,.12-1.73V46.1a5.14,5.14,0,0,0-1-3.3L619.69,18.66a17.07,17.07,0,0,0-2-2.71,6,6,0,0,0-1.77-1.33c-.16,0-.57-.15-1.21-.28s-1.32-.28-2-.44-1.32-.34-1.86-.53S610,13,610,12.85c0-.43.33-.7,1-.81a11.13,11.13,0,0,1,1.86-.16q.81,0,2.1.12l2.62.24,2.63.24q1.29.12,2.1.12a30.38,30.38,0,0,0,3.43-.16,30.26,30.26,0,0,1,3.43-.16h.64a2.84,2.84,0,0,1,.81.12,3.23,3.23,0,0,1,.73.32.62.62,0,0,1,.32.53c0,.16-.15.28-.44.36l-1,.25a6.9,6.9,0,0,0-1,.28c-.3.1-.45.27-.45.48a4.45,4.45,0,0,0,.49,2A21.83,21.83,0,0,0,630.59,19l11.14,17.6c.65,1,1.16,1.45,1.53,1.45s.65-.29,1.13-.89L653.19,23c.76-1.24,1.48-2.59,2.18-4a9,9,0,0,0,1-3.79,1.11,1.11,0,0,0-.44-1,3.33,3.33,0,0,0-1-.41l-1-.2c-.3-.05-.44-.16-.44-.32,0-.43.25-.69.76-.77a8.44,8.44,0,0,1,1.25-.12c.76,0,1.71,0,2.87.12s2.11.12,2.87.12a25.06,25.06,0,0,0,3.43-.2,26.64,26.64,0,0,1,3.43-.2,11.17,11.17,0,0,1,1.29.08A.66.66,0,0,1,670.15,13ZM596.6,45a3.41,3.41,0,0,0-.28-1.14c-.19-.48-.33-.86-.44-1.13l-6.06-15.17c-.27-.65-.51-1-.72-1s-.3.13-.41.4-.27.68-.48,1.21l-5.49,14c-.27.65-.53,1.28-.77,1.9a5.62,5.62,0,0,0-.36,1.09c0,.21.38.32,1.13.32h12.43a5.58,5.58,0,0,0,1.17-.08C596.51,45.41,596.6,45.24,596.6,45Zm24.71,23.65c0,.37-.23.59-.69.64a8.52,8.52,0,0,1-1.09.08c-1.13,0-2.27,0-3.43-.12s-2.3-.12-3.43-.12q-2.67,0-6.06.12c-2.26.08-4.27.12-6.05.12a5,5,0,0,1-.85-.08.52.52,0,0,1-.52-.56c0-.38.23-.63.68-.77s1-.25,1.54-.36a4.27,4.27,0,0,0,1.53-.61,1.8,1.8,0,0,0,.69-1.65,12.8,12.8,0,0,0-.33-3A30.58,30.58,0,0,0,602,58.46l-2-5.09c-.33-.86-.61-1.56-.85-2.1A9.83,9.83,0,0,0,598.5,50a1.47,1.47,0,0,0-.56-.56,1.86,1.86,0,0,0-.77-.12h-15.9a2.11,2.11,0,0,0-1.29.24,3.32,3.32,0,0,0-.57,1.05l-2.74,6.86a46.26,46.26,0,0,0-1.5,4.4,12.7,12.7,0,0,0-.52,3.35,1.44,1.44,0,0,0,.89,1.49,9.59,9.59,0,0,0,1.69.53c.21,0,.5.1.85.16s.71.12,1.09.2a6,6,0,0,1,1,.28c.27.11.4.27.4.49,0,.48-.15.76-.44.84a3.94,3.94,0,0,1-1,.12c-1.13,0-2.32,0-3.55-.12s-2.43-.12-3.56-.12q-1.93,0-4.23.12c-1.54.08-3,.12-4.24.12a5,5,0,0,1-1-.12.68.68,0,0,1-.57-.76c0-.38.3-.6.89-.65s1-.11,1.29-.16A5.54,5.54,0,0,0,567.5,66a13.06,13.06,0,0,0,2-3.39l21-50.93a8.53,8.53,0,0,1,.56-1.22c.22-.37.46-.56.73-.56s.51.2.73.6a15.1,15.1,0,0,1,.64,1.42l20.51,50.05a24.29,24.29,0,0,0,1.09,2.38,12.94,12.94,0,0,0,1.41,2.22,2.32,2.32,0,0,0,1.25.69c.57.13,1.14.24,1.74.32a9.94,9.94,0,0,1,1.53.32A.79.79,0,0,1,621.31,68.63Zm-69-12.27a16.42,16.42,0,0,0-1.09-6.06,12.9,12.9,0,0,0-3.15-4.68,14.83,14.83,0,0,0-4.93-3,17.82,17.82,0,0,0-6.33-1.09,3.7,3.7,0,0,0-1.66.21c-.19.13-.28.44-.28.92V56.36c0,1.4,0,2.59,0,3.59s.08,1.84.16,2.54a11.18,11.18,0,0,0,.32,1.74,4.22,4.22,0,0,0,.53,1.17,5.5,5.5,0,0,0,.93,1,2.85,2.85,0,0,0,1,.52,5.15,5.15,0,0,0,1.21.21c.45,0,1,0,1.73,0a18.16,18.16,0,0,0,3.55-.4,10.42,10.42,0,0,0,3.8-1.61,9.88,9.88,0,0,0,3-3.31A10.89,10.89,0,0,0,552.29,56.36Zm-4-27.21a13.85,13.85,0,0,0-1.13-5.73,14.25,14.25,0,0,0-2.79-4.2,12.29,12.29,0,0,0-3.51-2.58,8,8,0,0,0-3.39-.89,3.89,3.89,0,0,0-2.1.37c-.32.24-.48,1.08-.48,2.54V36.58a2.15,2.15,0,0,0,.24,1.25c.16.19.59.28,1.29.28h3.8a18.16,18.16,0,0,0,3-.24,5.66,5.66,0,0,0,2.59-1.13,6,6,0,0,0,1.81-2.66A14.09,14.09,0,0,0,548.25,29.15Zm12.84,25.92a12.78,12.78,0,0,1-1.78,7,13.49,13.49,0,0,1-4.68,4.48A21,21,0,0,1,548.05,69a37.56,37.56,0,0,1-7.39.73c-2.42,0-4.71-.1-6.86-.28s-4.2-.29-6.14-.29c-1.07,0-2.42.06-4,.16s-3,.17-4,.17-1.53-.3-1.53-.89c0-.22.15-.38.44-.49a4,4,0,0,1,1.09-.2l1.29-.08a4.48,4.48,0,0,0,1.13-.2,4.24,4.24,0,0,0,1.58-.61,2.61,2.61,0,0,0,1-1.17,8.51,8.51,0,0,0,.44-2c.14-.95.24-2,.32-3.31s.15-2.65.21-4.16.08-3,.08-4.52V20.68c0-.92,0-1.91-.12-3a5.41,5.41,0,0,0-.53-2.26,3.66,3.66,0,0,0-.77-.73,4.23,4.23,0,0,0-.76-.4A5.7,5.7,0,0,0,522,14l-1.57-.17c-.51-.05-.94-.1-1.29-.16s-.53-.21-.53-.48.27-.55.81-.69a6.1,6.1,0,0,1,1.37-.2c.38,0,.89,0,1.54,0l2.18.12c.8.06,1.64.1,2.5.12s1.69,0,2.5,0c.43,0,1.09,0,2,0l2.87-.08,3-.08c1,0,1.82,0,2.46,0a19.42,19.42,0,0,1,5.86.93A16.27,16.27,0,0,1,551,16a14.7,14.7,0,0,1,3.76,4.45,12,12,0,0,1,1.45,5.93,17.38,17.38,0,0,1-.68,5.25,11.93,11.93,0,0,1-1.7,3.43,8.76,8.76,0,0,1-2.22,2.1,21.28,21.28,0,0,1-2.26,1.25,10.53,10.53,0,0,1-1.37.6c-.27.08-.41.18-.41.28s.18.21.53.29a15.78,15.78,0,0,1,1.65.52,29.2,29.2,0,0,1,3.47,1.58,15.55,15.55,0,0,1,3.72,2.74,14.24,14.24,0,0,1,4.2,10.62ZM511.68,12.85c0,.27-.17.47-.52.6a6,6,0,0,1-1.3.32c-.51.09-1,.19-1.61.33a4,4,0,0,0-1.41.6,1.67,1.67,0,0,0-.65.77,6.52,6.52,0,0,0-.4,1.61,28.23,28.23,0,0,0-.24,2.91c-.06,1.21-.08,2.73-.08,4.56V66a30.12,30.12,0,0,1-.13,3.39q-.12,1.05-.6,1.05a2.56,2.56,0,0,1-1.41-.88c-.62-.6-1.47-1.43-2.55-2.51l-37.53-37.7c-.87-.86-1.46-1.29-1.78-1.29s-.43.2-.48.61a24,24,0,0,0-.08,2.62v28a18.7,18.7,0,0,0,.52,4.48,5.34,5.34,0,0,0,1.65,3,4.17,4.17,0,0,0,1.54.69c.59.13,1.15.24,1.69.32a10.21,10.21,0,0,1,1.37.28c.38.11.57.27.57.49,0,.37-.12.62-.36.72a5,5,0,0,1-1.66.17l-1.49,0c-.62,0-1.29-.07-2-.13l-2.14-.12c-.7,0-1.32,0-1.85,0s-1.24,0-2.1,0-1.73.07-2.59.12-1.64.1-2.34.13l-1.37,0a4.15,4.15,0,0,1-1.17-.13.56.56,0,0,1-.45-.6c0-.32.21-.54.61-.65a11.78,11.78,0,0,1,1.49-.28c.6-.08,1.21-.19,1.86-.32a4.13,4.13,0,0,0,1.7-.77,4.54,4.54,0,0,0,1.25-2.46,23.7,23.7,0,0,0,.44-5.21V15.59a32.2,32.2,0,0,1,.12-3.35c.08-.67.37-1,.85-1q1.05,0,3.71,2.67l38,38.18c.64.75,1.15,1.13,1.53,1.13s.4-.54.4-1.61V22.05a32.73,32.73,0,0,0-.24-4.8,3.93,3.93,0,0,0-1-2.22,3.42,3.42,0,0,0-1.49-.89c-.57-.16-1.09-.28-1.58-.37s-.88-.16-1.21-.24-.48-.25-.48-.52c0-.54.56-.81,1.69-.81.43,0,1.32.07,2.67.2a35,35,0,0,0,3.63.2c.54,0,1.14,0,1.82-.08l2-.12c.65,0,1.24-.07,1.78-.12s.94-.08,1.21-.08a14,14,0,0,1,1.61.08C511.47,12.33,511.68,12.52,511.68,12.85ZM433.94,43.64a44.62,44.62,0,0,0-1.29-10.72,30.93,30.93,0,0,0-3.92-9.35A21.34,21.34,0,0,0,422.24,17a16.15,16.15,0,0,0-9-2.5,15.11,15.11,0,0,0-8.72,2.38,18.43,18.43,0,0,0-5.57,6,26.09,26.09,0,0,0-3,7.74,37.16,37.16,0,0,0-.89,7.69,40.89,40.89,0,0,0,1.54,11.45A29.93,29.93,0,0,0,401,58.91a20.66,20.66,0,0,0,6.7,6.13,17.24,17.24,0,0,0,8.67,2.22A13.84,13.84,0,0,0,424,65.12a18.65,18.65,0,0,0,5.53-5.52A25.47,25.47,0,0,0,432.85,52,33.37,33.37,0,0,0,433.94,43.64ZM444,39.73a39.69,39.69,0,0,1-1.69,11.62,27.11,27.11,0,0,1-5.3,9.81,25.39,25.39,0,0,1-9.22,6.74,32.82,32.82,0,0,1-13.45,2.5,29.53,29.53,0,0,1-11.12-2.13,30.09,30.09,0,0,1-9.38-6A28.15,28.15,0,0,1,385,41.34a33.18,33.18,0,0,1,2.18-12.23,28.1,28.1,0,0,1,6.07-9.48,26.61,26.61,0,0,1,9.34-6.14,32.11,32.11,0,0,1,12-2.18,29.17,29.17,0,0,1,27.24,17.8A26.78,26.78,0,0,1,444,39.73ZM380.18,68.47c0,.43-.27.68-.81.76a13.4,13.4,0,0,1-1.94.12c-.37,0-.94,0-1.69,0l-2.42-.08-2.51-.08-1.85,0c-1.51,0-2.78,0-3.8.08s-1.89.1-2.62.12-1.37.07-1.94.13-1.14.08-1.73.08a6,6,0,0,1-1.05-.12c-.43-.09-.65-.32-.65-.69s.26-.61.77-.69,1.1-.19,1.77-.32a9,9,0,0,0,2-.65,2.57,2.57,0,0,0,1.37-1.57,6.15,6.15,0,0,0,.29-1.45c.08-.7.16-1.47.24-2.3s.13-1.7.16-2.59,0-1.63,0-2.22v-14c0-.54-.11-.85-.32-.93a4.06,4.06,0,0,0-1.21-.12H335.45a3.5,3.5,0,0,0-1.16.12c-.19.08-.29.39-.29.93V59.83a26.38,26.38,0,0,0,.16,3.15,11.12,11.12,0,0,0,.41,1.93,3.37,3.37,0,0,0,1.21,1.78,2.91,2.91,0,0,0,1.45.77,14,14,0,0,0,1.7.28,7.56,7.56,0,0,1,1.37.24.66.66,0,0,1,.56.65.65.65,0,0,1-.6.68,6.12,6.12,0,0,1-1.33.13c-.6,0-1.16,0-1.7,0s-1.16-.07-1.86-.13-1.5-.09-2.42-.12-2,0-3.39,0q-4.35,0-7,.2t-3.51.21c-1.08,0-1.62-.3-1.62-.89,0-.38.26-.61.77-.69s1.12-.16,1.82-.24a12.08,12.08,0,0,0,2.1-.44,2.8,2.8,0,0,0,1.61-1.3q1-2,1.05-7.91V21.73c0-1,0-1.87,0-2.55a12.43,12.43,0,0,0-.16-1.65,9.82,9.82,0,0,0-.28-1.13,4.55,4.55,0,0,0-.41-.89,2.8,2.8,0,0,0-1.41-1.29,8.43,8.43,0,0,0-1.62-.45c-.51-.08-.95-.16-1.33-.24a.64.64,0,0,1-.56-.68c0-.27.16-.45.48-.53a5.14,5.14,0,0,1,1.21-.12c1.08,0,2.37.07,3.88.2s3.09.2,4.76.2c.81,0,1.69,0,2.66-.08s1.89-.12,2.75-.2l2.26-.2c.64-.06,1.1-.08,1.37-.08a7.66,7.66,0,0,1,1.05.08.66.66,0,0,1,.65.73.49.49,0,0,1-.33.52,4.14,4.14,0,0,1-.88.2,9.54,9.54,0,0,0-1.38.33,10.75,10.75,0,0,0-1.85.8,3.38,3.38,0,0,0-1.3,2.26,26.17,26.17,0,0,0-.32,4.69V36.5c0,.54.07.86.2,1a2.56,2.56,0,0,0,1.17.16h27a3.58,3.58,0,0,0,1.21-.12c.16-.08.24-.42.24-1V20.19a13,13,0,0,0-.36-3.39,4.47,4.47,0,0,0-1-1.94,4,4,0,0,0-1.41-.8,12,12,0,0,0-1.46-.37q-.69-.12-1.17-.24c-.32-.08-.48-.26-.48-.52a.57.57,0,0,1,.52-.65,15.5,15.5,0,0,1,1.9-.08c.38,0,.95,0,1.73.08s1.59.1,2.43.12,1.61.07,2.34.12,1.22.08,1.49.08c.54,0,1.24,0,2.1-.08l2.7-.16,2.71-.16c.86,0,1.56-.08,2.1-.08a2,2,0,0,1,.6.12.56.56,0,0,1,.37.61c0,.27-.18.45-.53.56s-.77.22-1.25.32a9.61,9.61,0,0,0-1.53.49,4,4,0,0,0-1.38.89c-.8.8-1.21,3.41-1.21,7.83V48.37q0,7.43.2,11.5a19.56,19.56,0,0,0,.77,5.45,2.84,2.84,0,0,0,1.49,1.57,9.84,9.84,0,0,0,2.06.65c.7.13,1.32.24,1.86.32S380.18,68.14,380.18,68.47Zm-69-15.18a18.72,18.72,0,0,1-1.46,7.06,15.35,15.35,0,0,1-5.41,6.5,17.76,17.76,0,0,1-5,2.55,21.11,21.11,0,0,1-6.82,1,26.35,26.35,0,0,1-3.59-.2q-1.5-.2-2.79-.48a22.07,22.07,0,0,1-2.46-.69l-2.62-.89a2,2,0,0,1-1-.52,2,2,0,0,1-.37-1.41v-1c0-.49,0-1,0-1.54s0-1,0-1.53V61c0-.27,0-.67.08-1.21s.14-1.08.25-1.62a7.68,7.68,0,0,1,.4-1.41c.16-.4.38-.6.65-.6a.57.57,0,0,1,.56.4,3.31,3.31,0,0,1,.2,1.09c0,.46.08,1,.16,1.49a7,7,0,0,0,.45,1.62,12.62,12.62,0,0,0,1.25,2.34,8.09,8.09,0,0,0,2.1,2.06,11.23,11.23,0,0,0,3.23,1.49,16.67,16.67,0,0,0,4.72.56,10.92,10.92,0,0,0,7.43-2.46c1.88-1.64,2.82-4.22,2.82-7.72a8.89,8.89,0,0,0-.56-3.27,9.24,9.24,0,0,0-1.58-2.6,14.08,14.08,0,0,0-2.46-2.22l-3.15-2.26L287.5,40.5a19.62,19.62,0,0,1-5.89-6.32,18.29,18.29,0,0,1-1.94-9q0-6.85,4.56-10.47t12.15-3.59a23.53,23.53,0,0,1,5.9.69,18.53,18.53,0,0,0,3.55.68,3.28,3.28,0,0,0,1.69-.28,2.12,2.12,0,0,1,1.21-.28c.17,0,.25.13.25.4a4.35,4.35,0,0,1-.21,1.13,4.94,4.94,0,0,0-.2,1.21c0,.49,0,.88,0,1.17s0,1.07,0,2.3c0,.65,0,1.35,0,2.1s-.08,1.48-.16,2.18a8.24,8.24,0,0,1-.36,1.74c-.16.46-.4.68-.73.68s-.68-.25-.76-.76-.17-1.17-.25-2a10.49,10.49,0,0,0-.64-2.62,6.15,6.15,0,0,0-2.06-2.63,13.88,13.88,0,0,0-3.07-1.77,13,13,0,0,0-5.09-.81,10,10,0,0,0-3,.48,8.69,8.69,0,0,0-2.83,1.54,8.4,8.4,0,0,0-2.14,2.7,8.78,8.78,0,0,0-.84,4,10.33,10.33,0,0,0,.44,3.19,7.38,7.38,0,0,0,1.37,2.42,14.9,14.9,0,0,0,2.26,2.1c.89.67,2,1.44,3.19,2.3l6.54,4.52c1.35.91,2.66,1.88,4,2.9a21.06,21.06,0,0,1,3.43,3.44,16.18,16.18,0,0,1,2.38,4.19A14.45,14.45,0,0,1,311.16,53.29Zm473.25,145c0,.16-.18.29-.53.37a12.74,12.74,0,0,1-1.29.2,15,15,0,0,0-1.57.24,5.32,5.32,0,0,0-3.47,2.06,16.62,16.62,0,0,0-2.18,2.78l-14.29,23.25a7.63,7.63,0,0,0-1.09,2.26,10.16,10.16,0,0,0-.2,2.26v12.35c0,.33,0,.84,0,1.54s.06,1.42.12,2.18a14.61,14.61,0,0,0,.28,2.1,3.42,3.42,0,0,0,.52,1.37,6,6,0,0,0,2,1.29,6.21,6.21,0,0,0,2.34.65,10.29,10.29,0,0,1,1.17.08c.52,0,.77.27.77.64s-.36.69-1.09.77-1.25.12-1.57.12c-1.24,0-2.69-.07-4.36-.2s-3.12-.2-4.36-.2c-.65,0-1.44,0-2.38.08s-1.91.09-2.91.12-2,.07-2.91.12-1.73.08-2.38.08c-.27,0-.64,0-1.13-.08s-.72-.3-.72-.73.25-.56.76-.72,1.12-.33,1.82-.49l2.06-.48a3.65,3.65,0,0,0,1.49-.65,2.38,2.38,0,0,0,.73-1.21,11.24,11.24,0,0,0,.36-1.69,13.05,13.05,0,0,0,.12-1.74V231.42a6.12,6.12,0,0,0-.2-1.74,6.23,6.23,0,0,0-.77-1.57L734,204a18.1,18.1,0,0,0-2-2.7,6,6,0,0,0-1.78-1.33,11.76,11.76,0,0,0-1.21-.28l-2-.45c-.7-.16-1.32-.34-1.86-.52s-.8-.37-.8-.53c0-.43.32-.7,1-.81a12.07,12.07,0,0,1,1.85-.16q.81,0,2.1.12l2.62.25,2.63.24q1.29.12,2.1.12a30.38,30.38,0,0,0,3.43-.16,30.26,30.26,0,0,1,3.43-.16H744a2.84,2.84,0,0,1,.81.12,3.23,3.23,0,0,1,.73.32.6.6,0,0,1,.32.52c0,.17-.15.29-.44.37l-1,.24a7.27,7.27,0,0,0-1,.28c-.3.11-.45.27-.45.49a4.66,4.66,0,0,0,.49,2,22.81,22.81,0,0,0,1.37,2.38L756,221.89c.65,1,1.16,1.46,1.53,1.46s.65-.3,1.14-.89l8.79-14.13c.76-1.24,1.48-2.58,2.18-4a9,9,0,0,0,1-3.8,1.1,1.1,0,0,0-.44-1,3.06,3.06,0,0,0-1-.4c-.35-.08-.67-.15-1-.2s-.44-.16-.44-.33c0-.43.25-.68.77-.76a8.33,8.33,0,0,1,1.25-.12c.75,0,1.7,0,2.86.12s2.11.12,2.87.12a26.76,26.76,0,0,0,3.43-.2,24.83,24.83,0,0,1,3.43-.21,9.32,9.32,0,0,1,1.29.09A.65.65,0,0,1,784.41,198.32ZM437.19,253.94a.65.65,0,0,1-.41.61,1.86,1.86,0,0,1-.81.2l-1.41,0-2.78-.12c-1.08-.06-2.19-.09-3.35-.12s-2.22,0-3.19,0q-4.12,0-7,.2c-1.93.13-3.09.2-3.47.2-1,0-1.45-.3-1.45-.89,0-.27.22-.45.65-.56s.94-.2,1.53-.29,1.2-.18,1.82-.32a3.93,3.93,0,0,0,1.49-.6q1.86-1.38,1.86-7.83V205.43a14,14,0,0,0-.37-3.8,2.81,2.81,0,0,0-1.41-1.77,6.59,6.59,0,0,0-1.49-.61c-.51-.13-1-.24-1.37-.32s-.74-.16-1-.24-.41-.23-.41-.45c0-.37.22-.59.65-.64a8.35,8.35,0,0,1,1.13-.09l1.29.09c.75.05,1.59.09,2.5.12s1.85.06,2.79.12,1.68.08,2.22.08,1.26,0,2.18-.08,1.84-.12,2.78-.2l2.59-.21c.78-.05,1.33-.08,1.65-.08a2.87,2.87,0,0,1,1.58.29.79.79,0,0,1,.36.6c0,.16-.18.3-.53.41s-.78.21-1.29.32l-1.57.32a3.51,3.51,0,0,0-1.29.49,2.71,2.71,0,0,0-1,1.13,5.81,5.81,0,0,0-.53,1.57,12.35,12.35,0,0,0-.2,1.74c0,.59,0,1.07,0,1.45v36.65c0,2.26.05,4.08.16,5.45a7.49,7.49,0,0,0,.81,3.15,3.66,3.66,0,0,0,1.9,1.57,14.09,14.09,0,0,0,3.43.73C436.84,253.32,437.19,253.57,437.19,253.94Zm66.14-55.62c0,.06-.05.14-.16.24a2.3,2.3,0,0,1-.85.21c-.34,0-.74.06-1.17.12a13.22,13.22,0,0,0-1.37.24,3.52,3.52,0,0,0-1.37.65,8.92,8.92,0,0,0-2.75,3.31c-.75,1.45-1.37,2.74-1.85,3.87L473.3,255a4.52,4.52,0,0,1-.52.93,1,1,0,0,1-.77.53c-.27,0-.5-.18-.68-.53a9.52,9.52,0,0,1-.45-.93l-20.75-48.92a26.24,26.24,0,0,0-2.3-4.15,6.35,6.35,0,0,0-3.91-2.63,4,4,0,0,0-.77-.12,8.63,8.63,0,0,1-2.1-.44c-.29-.11-.44-.25-.44-.41,0-.37.31-.59.93-.64s1.06-.08,1.33-.08c1.56,0,3.22.05,5,.16s3.41.16,5,.16c1.18,0,2.41,0,3.67-.16s2.46-.16,3.59-.16a7.23,7.23,0,0,1,1,.08c.43,0,.65.24.65.56a.52.52,0,0,1-.45.53c-.29.08-.63.16-1,.24a2.64,2.64,0,0,0-1,.44,1.41,1.41,0,0,0-.45,1.21,6.83,6.83,0,0,0,.25,1.58q.24,1,.6,2.1c.24.72.48,1.42.73,2.1s.44,1.19.6,1.57l12.35,30.68a5.24,5.24,0,0,1,.41.76c.16.35.37.53.64.53a.6.6,0,0,0,.53-.36,5.82,5.82,0,0,1,.36-.61l14.13-33.5a10.58,10.58,0,0,0,.68-2.1,9.71,9.71,0,0,0,.29-2.18,1.88,1.88,0,0,0-.41-1.37,3.28,3.28,0,0,0-.89-.65,5.46,5.46,0,0,0-.88-.36.52.52,0,0,1-.41-.53c0-.48.41-.72,1.21-.72a25,25,0,0,1,2.83.16,25,25,0,0,0,2.83.16c1,0,2.12-.07,3.47-.2a34.11,34.11,0,0,1,3.47-.21,6.94,6.94,0,0,1,1.09.13C503.11,197.72,503.33,198,503.33,198.32Zm37.8,7.27a10.08,10.08,0,0,1,0,1,.4.4,0,0,1-.44.4c-.49,0-.77-.31-.85-.93a8.64,8.64,0,0,0-.28-1.41,5.21,5.21,0,0,0-1.22-1.94,5,5,0,0,0-2-1.21,10.89,10.89,0,0,0-2.55-.36c-.94,0-1.79,0-2.54,0h-7.35a3.54,3.54,0,0,0-1.81.4,1.63,1.63,0,0,0-.69,1.54v18.48q0,.88.24,1.05a2.44,2.44,0,0,0,1.13.16h8.56a20.54,20.54,0,0,0,2.06-.12,3.24,3.24,0,0,0,1.82-.68,2.26,2.26,0,0,0,.8-1.25c.16-.57.3-1.14.41-1.7s.21-1.06.32-1.49.3-.65.57-.65.51.31.56.93.08,1.17.08,1.65q0,1.14-.12,2.34t-.12,2.34c0,1,0,2.09.08,3.19s.08,2.17.08,3.19a6.74,6.74,0,0,1-.08.93.54.54,0,0,1-.57.53c-.27,0-.45-.18-.56-.53a9.13,9.13,0,0,1-.28-1.29,11.42,11.42,0,0,0-.41-1.66A3.56,3.56,0,0,0,535,227a2.62,2.62,0,0,0-1.57-.52q-1.17-.12-2-.12h-9.28c-.43,0-.67.08-.73.24a3,3,0,0,0-.08.8v18.81a11.32,11.32,0,0,0,.12,1.74,2.42,2.42,0,0,0,.85,1.41,3.56,3.56,0,0,0,1.49.85,11,11,0,0,0,2,.4c.7.08,1.4.14,2.1.16s1.32.05,1.86.05c1.07,0,2.37-.05,3.87-.13a12.25,12.25,0,0,0,3.88-.76,4.69,4.69,0,0,0,2-1.38,11,11,0,0,0,1.17-1.73c.29-.57.52-1.05.68-1.45s.38-.61.65-.61a.43.43,0,0,1,.48.36,2.87,2.87,0,0,1,.08.69,6.76,6.76,0,0,1-.52,2.06c-.35.94-.72,1.87-1.09,2.78a21.44,21.44,0,0,0-.69,2.1,3.78,3.78,0,0,1-.44,1.21,2.23,2.23,0,0,1-1.09.57,5.42,5.42,0,0,1-1.25.16q-4.85,0-10.46-.12t-10.45-.12c-1.35,0-2.81,0-4.4.16s-3.05.16-4.4.16a13.42,13.42,0,0,1-1.78-.12c-.59-.08-.88-.34-.88-.77s.26-.52.8-.6l1.82-.29a10,10,0,0,0,2-.52,2.35,2.35,0,0,0,1.37-1.25,12.47,12.47,0,0,0,.61-3.31c.13-1.56.24-3.23.32-5s.12-3.47.12-5.08V204.05a4.53,4.53,0,0,0-1-3.31,5.89,5.89,0,0,0-2.26-1.45,11.17,11.17,0,0,0-2.26-.52c-.7-.08-1.05-.29-1.05-.61s.23-.51.69-.56a8.74,8.74,0,0,1,1.08-.09c.54,0,1.22,0,2,.09s1.63.09,2.47.12,1.65.06,2.46.12,1.48.08,2,.08q3.06,0,6.33,0c2.18,0,4.3-.07,6.34-.12.81,0,1.48,0,2,0l1.53-.08,1.58-.08c.56,0,1.25-.05,2-.05s1.47,0,2.14-.08,1.39-.08,2.14-.08c.38,0,.57.3.57.89,0,.22,0,.45,0,.69a4.39,4.39,0,0,0,0,.52c0,1,0,2,.12,3.07S541.13,204.62,541.13,205.59ZM560,254.43c-2.75,0-5.11.07-7.11.2s-3.17.2-3.55.2c-1,0-1.45-.3-1.45-.89,0-.27.21-.45.64-.56s1-.2,1.54-.29,1.2-.18,1.81-.32a4,4,0,0,0,1.5-.6q1.86-1.38,1.86-7.83V204.62a12.21,12.21,0,0,0-.29-3.19,2.33,2.33,0,0,0-1.17-1.41,8.12,8.12,0,0,0-1.73-.73l-1.5-.4-1-.28c-.27-.08-.4-.23-.4-.45a.5.5,0,0,1,.32-.52,4,4,0,0,1,1.21-.13c.43,0,1.51.07,3.23.21s3.66.2,5.83.2a53.32,53.32,0,0,0,5.7-.28,47.59,47.59,0,0,1,5.14-.29,26.37,26.37,0,0,1,7.08.93,18.8,18.8,0,0,1,5.91,2.75,13.76,13.76,0,0,1,4,4.48,12.19,12.19,0,0,1,1.49,6.05,14.84,14.84,0,0,1-1.43,6.74,19.29,19.29,0,0,1-3.21,4.77A18.48,18.48,0,0,1,581,226c-1.06.67-1.69,1.06-1.91,1.17s-.24.22-.24.33a3.46,3.46,0,0,0,.56,1l11.87,14.37q1.46,1.69,2.91,3.35c1,1.11,1.93,2.13,2.9,3.07a18.65,18.65,0,0,0,2.91,2.34,7.78,7.78,0,0,0,2.82,1.17,2.5,2.5,0,0,0,.85,0,7.19,7.19,0,0,1,.93,0,2.38,2.38,0,0,1,.73.2.59.59,0,0,1,.32.57c0,.48-.38.78-1.13.89a14.86,14.86,0,0,1-1.86.16h-5.57a24.91,24.91,0,0,1-3.31-.24,15,15,0,0,1-3.51-.93A15.54,15.54,0,0,1,587,251.6a11.83,11.83,0,0,1-2.78-2.82l-8.32-12.19q-1.7-2.51-3.35-4.48a4.63,4.63,0,0,0-3.51-2h-3.88c-.48,0-.72.21-.72.64v10.74a53.72,53.72,0,0,0,.28,6.58,9.14,9.14,0,0,0,.69,2.79,3.23,3.23,0,0,0,.92,1.21,3.42,3.42,0,0,0,1.26.64,3,3,0,0,0,1,.2,10,10,0,0,1,1.05.13,2.37,2.37,0,0,1,.85.28.6.6,0,0,1,.37.52c0,.59-.57.89-1.7.89l-1.45,0-2.55-.12c-.94-.06-1.89-.09-2.86-.12S560.53,254.43,560,254.43Zm19.86-40a17.4,17.4,0,0,0-.65-4.62,13.53,13.53,0,0,0-2-4.29,10.68,10.68,0,0,0-3.51-3.16,10.05,10.05,0,0,0-5-1.21h-1.94a1.85,1.85,0,0,0-1.82.85,6.28,6.28,0,0,0-.44,2.71v21.38q0,.57.72.69a8.59,8.59,0,0,0,1.38.12h4.92a9.13,9.13,0,0,0,2.95-.52,6.23,6.23,0,0,0,2.7-2,10.76,10.76,0,0,0,2-3.8A20.69,20.69,0,0,0,579.85,214.43ZM638.4,238.6a18.75,18.75,0,0,1-1.45,7.07,15.41,15.41,0,0,1-5.41,6.5,17.49,17.49,0,0,1-5,2.54,21.14,21.14,0,0,1-6.82,1,28.07,28.07,0,0,1-3.59-.2c-1-.14-1.93-.3-2.79-.49a22.07,22.07,0,0,1-2.46-.68l-2.62-.89a2.11,2.11,0,0,1-1-.53,2,2,0,0,1-.36-1.41v-1.05c0-.48,0-1,0-1.53s0-1.05,0-1.54v-1.13c0-.27,0-.67.08-1.21a15.33,15.33,0,0,1,.25-1.61,7.45,7.45,0,0,1,.4-1.41c.16-.41.37-.61.64-.61a.57.57,0,0,1,.57.4,3.66,3.66,0,0,1,.2,1.09c0,.46.08,1,.16,1.5a6.93,6.93,0,0,0,.45,1.61,12,12,0,0,0,1.25,2.34,7.93,7.93,0,0,0,2.1,2.06,11.11,11.11,0,0,0,3.23,1.5,17,17,0,0,0,4.72.56,10.88,10.88,0,0,0,7.42-2.46c1.89-1.64,2.83-4.23,2.83-7.72a8.89,8.89,0,0,0-.56-3.27,9.1,9.1,0,0,0-1.58-2.6,14.08,14.08,0,0,0-2.46-2.22L623.39,232l-8.64-6.15a19.39,19.39,0,0,1-5.89-6.31,18.29,18.29,0,0,1-1.94-9c0-4.58,1.52-8.06,4.56-10.47s7.09-3.59,12.15-3.59a24.08,24.08,0,0,1,5.9.68,18,18,0,0,0,3.55.69,3.42,3.42,0,0,0,1.69-.28,2.1,2.1,0,0,1,1.21-.29c.16,0,.25.14.25.41a4.43,4.43,0,0,1-.21,1.13,4.8,4.8,0,0,0-.2,1.21c0,.48,0,.87,0,1.17s0,1.06,0,2.3c0,.65,0,1.34,0,2.1s-.08,1.48-.16,2.18a8,8,0,0,1-.36,1.73c-.16.46-.41.69-.73.69s-.69-.26-.77-.77-.16-1.17-.24-2a10.56,10.56,0,0,0-.64-2.63,6.18,6.18,0,0,0-2.06-2.62,13.5,13.5,0,0,0-3.07-1.78,13,13,0,0,0-5.09-.81,9.93,9.93,0,0,0-3,.49,8.48,8.48,0,0,0-2.83,1.53,8.33,8.33,0,0,0-2.14,2.71,8.71,8.71,0,0,0-.84,4,10,10,0,0,0,.44,3.19,7,7,0,0,0,1.37,2.42A14,14,0,0,0,618,216c.89.68,2,1.44,3.19,2.3l6.54,4.52q2,1.38,4,2.91a21,21,0,0,1,3.43,3.43,16.24,16.24,0,0,1,2.38,4.2A14.39,14.39,0,0,1,638.4,238.6Zm30.2,15.34a.65.65,0,0,1-.41.61,1.82,1.82,0,0,1-.8.2l-1.42,0-2.78-.12c-1.08-.06-2.2-.09-3.35-.12s-2.22,0-3.19,0c-2.74,0-5.09.07-7,.2s-3.1.2-3.47.2c-1,0-1.46-.3-1.46-.89,0-.27.22-.45.65-.56s.94-.2,1.53-.29,1.2-.18,1.82-.32a3.87,3.87,0,0,0,1.49-.6q1.86-1.38,1.86-7.83V205.43a14,14,0,0,0-.37-3.8,2.81,2.81,0,0,0-1.41-1.77,6.59,6.59,0,0,0-1.49-.61c-.51-.13-1-.24-1.37-.32s-.74-.16-1-.24-.41-.23-.41-.45c0-.37.22-.59.65-.64a8.35,8.35,0,0,1,1.13-.09l1.29.09c.76.05,1.59.09,2.5.12s1.85.06,2.79.12,1.68.08,2.22.08,1.26,0,2.18-.08,1.84-.12,2.78-.2l2.59-.21c.78-.05,1.33-.08,1.65-.08a2.87,2.87,0,0,1,1.58.29.79.79,0,0,1,.36.6c0,.16-.18.3-.53.41s-.78.21-1.29.32l-1.57.32a3.51,3.51,0,0,0-1.29.49,2.71,2.71,0,0,0-1,1.13,6.18,6.18,0,0,0-.53,1.57,14,14,0,0,0-.2,1.74c0,.59,0,1.07,0,1.45v36.65c0,2.26.06,4.08.16,5.45a7.49,7.49,0,0,0,.81,3.15,3.66,3.66,0,0,0,1.9,1.57,14.09,14.09,0,0,0,3.43.73C668.25,253.32,668.6,253.57,668.6,253.94Zm54.73-55.54a12.25,12.25,0,0,1-.24,1.29c-.16.76-.3,1.49-.41,2.18a10.94,10.94,0,0,0-.2,1.66,16.41,16.41,0,0,1-.16,1.7,13.23,13.23,0,0,1-.28,1.33c-.11.37-.3.56-.57.56a.44.44,0,0,1-.48-.4,5.86,5.86,0,0,1-.12-.93c0-.35-.06-.7-.08-1a1.18,1.18,0,0,0-.29-.77c-.1-.1-.26-.27-.48-.48a3.18,3.18,0,0,0-1-.61,8.37,8.37,0,0,0-1.69-.48,14.11,14.11,0,0,0-2.67-.2H704.44a1,1,0,0,0-1.05.77,17,17,0,0,0-.24,3.75v27.93q0,4.28,0,7.23c0,2,.08,3.59.16,4.88a28,28,0,0,0,.32,3,3.53,3.53,0,0,0,.61,1.57,3,3,0,0,0,1.65,1.13,15.79,15.79,0,0,0,2.18.48l1.9.29q.81.12.81.6a.68.68,0,0,1-.69.73,15.48,15.48,0,0,1-1.66.08c-.32,0-.9,0-1.73,0l-2.66-.08-2.75-.08c-.89,0-1.52,0-1.9,0-.59,0-1.45,0-2.58.08s-2.27.09-3.43.12-2.19.07-3.11.12l-1.61.08a7.65,7.65,0,0,1-1.33-.12c-.46-.08-.69-.28-.69-.61a.74.74,0,0,1,.6-.84,14,14,0,0,1,1.54-.2,16.53,16.53,0,0,0,1.9-.29,3.23,3.23,0,0,0,1.69-.93,6.11,6.11,0,0,0,1.25-3.47,57.53,57.53,0,0,0,.29-6.46V206.15a15.32,15.32,0,0,0-.21-3,1.18,1.18,0,0,0-1.33-1H678.93a2.57,2.57,0,0,0-2.18,1.09,15.61,15.61,0,0,0-1.29,2,2.24,2.24,0,0,0-.32,1.17c0,.4-.25.6-.73.6s-.65-.59-.65-1.77a8.17,8.17,0,0,1,.12-1.17c.08-.52.19-1,.33-1.62s.28-1.13.44-1.69.3-1.07.41-1.5a6.78,6.78,0,0,0,.4-1.89c0-.46.21-.69.65-.69a2.69,2.69,0,0,1,1.21.28,5.09,5.09,0,0,0,1.45.44c.43.06,1,.11,1.82.17l2.42.16c.83.05,1.66.09,2.5.12s1.55,0,2.14,0H711c.7,0,1.68,0,2.94,0s2.51-.07,3.72-.12,2.27-.1,3.19-.12l1.45,0a2.77,2.77,0,0,1,.73.08C723.22,197.73,723.33,198,723.33,198.4Zm-383.68-.16c0,.43-.42.63-1.25.61a7.13,7.13,0,0,0-3,.76,3.91,3.91,0,0,0-2.18,3.48q-.24,2.58-.24,7.34v20.43q0,11.77-6.13,18.32t-17.68,6.54a32,32,0,0,1-9.65-1.37,21.44,21.44,0,0,1-7.42-4,17.08,17.08,0,0,1-4.77-6.5,22.7,22.7,0,0,1-1.65-9V210.43q0-3.63-.08-6.38c-.06-1.83-.3-3-.73-3.47a3.54,3.54,0,0,0-1.37-.92,10.69,10.69,0,0,0-1.74-.57l-1.49-.36c-.43-.11-.65-.27-.65-.49a.59.59,0,0,1,.28-.56,2.7,2.7,0,0,1,1.18-.17c1,0,2.35.07,4.15.21s3.59.2,5.37.2c1.08,0,2.15,0,3.23-.08s2.06-.1,2.95-.12,1.64-.07,2.26-.12,1-.09,1.25-.09c1.07,0,1.61.27,1.61.81,0,.16-.19.3-.56.41s-.81.2-1.29.28-1,.15-1.5.2a2.88,2.88,0,0,0-1.17.32c-.43.22-.81.42-1.13.61a2.55,2.55,0,0,0-.85,1.41,15.88,15.88,0,0,0-.52,3.46q-.17,2.34-.16,6.69l.16,21a39,39,0,0,0,.61,6.85,19.44,19.44,0,0,0,2.17,6.25,12.91,12.91,0,0,0,4.36,4.55,13.13,13.13,0,0,0,7.15,1.78,24.8,24.8,0,0,0,7.26-1.09A16.56,16.56,0,0,0,327,241.65a21.64,21.64,0,0,0,1.65-8.91V215.33a98,98,0,0,0-.4-10.4c-.27-2.32-.73-3.7-1.37-4.19a5.82,5.82,0,0,0-1.94-1.05c-.7-.21-1.35-.39-1.94-.52s-1.09-.25-1.49-.36-.61-.3-.61-.57a.5.5,0,0,1,.45-.56,7.4,7.4,0,0,1,1.33-.08c.22,0,.6,0,1.17,0s1.24.06,2,.12,1.6.09,2.46.12,1.67,0,2.42,0c1.56,0,3-.07,4.32-.2s2.14-.21,2.46-.21C339,197.51,339.65,197.76,339.65,198.24Zm67-.08c0,.27-.17.47-.52.61a6.74,6.74,0,0,1-1.29.32c-.51.08-1.05.19-1.62.32a4.15,4.15,0,0,0-1.41.61,1.67,1.67,0,0,0-.65.77,6.29,6.29,0,0,0-.4,1.61,28.23,28.23,0,0,0-.24,2.91c-.06,1.21-.08,2.73-.08,4.56v41.41a33.53,33.53,0,0,1-.12,3.39c-.09.7-.29,1.05-.61,1.05s-.79-.3-1.41-.89-1.47-1.43-2.55-2.5l-37.53-37.7c-.86-.86-1.46-1.29-1.78-1.29s-.43.2-.48.6a24.22,24.22,0,0,0-.08,2.63v28a18.76,18.76,0,0,0,.52,4.48,5.37,5.37,0,0,0,1.65,3,4.07,4.07,0,0,0,1.54.68c.59.14,1.16.24,1.69.32a12.56,12.56,0,0,1,1.38.29c.37.11.56.27.56.48a.71.71,0,0,1-.36.73,5.11,5.11,0,0,1-1.66.16c-.37,0-.87,0-1.49,0l-2-.12c-.72-.06-1.44-.09-2.14-.12s-1.31,0-1.85,0-1.24,0-2.1,0-1.72.06-2.59.12l-2.34.12-1.37,0a4.67,4.67,0,0,1-1.17-.12.56.56,0,0,1-.44-.61c0-.32.2-.53.6-.64a13.63,13.63,0,0,1,1.49-.29c.6-.08,1.22-.18,1.86-.32a4.12,4.12,0,0,0,1.7-.76,4.55,4.55,0,0,0,1.25-2.47,23.6,23.6,0,0,0,.44-5.2V200.91a32.07,32.07,0,0,1,.12-3.35c.08-.68.37-1,.85-1,.7,0,1.94.88,3.71,2.66l38,38.18c.64.76,1.15,1.13,1.53,1.13s.4-.53.4-1.61V207.36a32.73,32.73,0,0,0-.24-4.8,4,4,0,0,0-1.05-2.22,3.42,3.42,0,0,0-1.49-.89,14.52,14.52,0,0,0-1.58-.36c-.48-.08-.88-.16-1.21-.24s-.48-.26-.48-.53c0-.54.56-.81,1.69-.81q.65,0,2.67.21c1.34.13,2.56.2,3.63.2.54,0,1.14,0,1.82-.08s1.33-.1,2-.12,1.24-.07,1.78-.12a10.94,10.94,0,0,1,2.83,0C406.46,197.65,406.67,197.84,406.67,198.16Z"></path> <path class="cls-1" d="M1000,327.7V291h-4.07V327.7Zm-36.13-33.07h9.51V327.7h4.07V294.63H987V291H963.87Zm-6.38,33.07V324H943.08V310.45h13.43v-3.67H943.08V294.63h14.31V291H939V327.7Zm-49.6-33.07h9.51V327.7h4.06V294.63H931V291H907.89Zm-26.33,26.31V291H877.5V327.7h6.66l10.29-29.4a29,29,0,0,0,1.37-5.53h.1c0,1.86-.1,3.77-.1,5.63v29.3h4.07V291h-6.62L882.84,321c-.44,1.13-.79,2.3-1.28,4h-.1C881.51,323.73,881.56,322.31,881.56,320.94Zm-13.93-19c.2-6.57-3.43-11.76-10.38-11.76-10.44,0-11.67,10.39-11.67,18.67,0,8.77.4,19.69,11.71,19.69a9.29,9.29,0,0,0,8-4.11c1.77-2.55,1.91-4.8,2.16-7.79.1-.74.1-1.52.19-2.26h-4.06c-.1.84-.15,1.67-.25,2.5-.49,4-1.52,8-6.37,8-7.45,0-7.35-11.12-7.15-16.12,0-4.85.1-14.9,7.15-14.9,5.1,0,6.52,3.73,6.62,8.09ZM820.19,327.7V312.12h2.45c2.79,0,7,0,9.5-1.08,4-1.81,5.2-5.78,5.2-9.85a10.35,10.35,0,0,0-3-7.84c-2.16-2.05-5.73-2.4-8.58-2.4h-9.65V327.7Zm0-33.07h4.21c5-.1,8.72.73,8.72,6.66,0,6.32-3.38,7.11-9,7.16h-4ZM806.6,327.7V324H792.2V310.45h13.42v-3.67H792.2V294.63h14.3V291H788.13V327.7Zm-39.51,0c7.06.3,11.08-3.53,11-10.83,0-4.51-1.52-8-6.37-8.62v-.1c4.31-1.47,5.63-4,5.49-8.08-.2-5.49-2.7-9.31-9.36-9.12H757.39V327.7Zm-5.63-33.07H765c6.17-.1,7.84,1.22,7.84,5.78,0,5.63-2.85,6.52-7.79,6.27h-3.63Zm0,29.4V310.36h3.63c4.16,0,8.86-.49,8.82,6.76,0,4.8-1.62,7-6,6.91Zm-33.53-3.09V291h-4.07V327.7h6.67l10.29-29.4a29,29,0,0,0,1.37-5.53h.1c0,1.86-.1,3.77-.1,5.63v29.3h4.07V291h-6.62L729.2,321c-.44,1.13-.78,2.3-1.27,4h-.1C727.88,323.73,727.93,322.31,727.93,320.94ZM694.6,327.7V310h14.06V327.7h4.07V291h-4.07v15.34H694.6V291h-4.07V327.7Zm-24.07-13.13S661.12,291,661.12,291h-4.66l12.35,28.62-.93,2.35c-.93,2.35-2.11,2.94-3.43,2.94a11.21,11.21,0,0,1-1.86-.15v3.73c.68.05,1.52.14,2.5.14,4.06,0,5.73-3.38,7-7.49L682.63,291h-4.51l-7.5,23.62Zm-43,0c.05,0-9.41-23.62-9.41-23.62h-4.65l12.34,28.62-.93,2.35c-.93,2.35-2.1,2.94-3.43,2.94a11.21,11.21,0,0,1-1.86-.15v3.73c.69.05,1.52.14,2.5.14,4.07,0,5.73-3.38,7.06-7.49L639.64,291h-4.51l-7.49,23.62Zm-36.27,5a52.42,52.42,0,0,0-.94,5.49h-.09a32.06,32.06,0,0,0-.79-5.44L582.25,291h-7.2V327.7h4.07V297.52c0-1.57-.1-3.19-.1-4.75h.1c.44,2,.73,3.23,1.07,4.5l7.7,30.43h4.85l7.69-30c.34-1.42.69-2.79,1.13-4.94h.09c.1,1.56,0,3.08,0,4.65V327.7h4.07V291h-7.15ZM559,313.44h-9.7l4.85-19.55h.1ZM541.13,327.7h4.51l2.69-10.58h11.61l2.89,10.58h4.51L557,291h-5.39Zm-12-33.17v29.6H515.58c1.57-2.41,1.87-6.28,1.87-9.95V294.53ZM513.53,291v22.79c0,5.73-.45,9.26-2.7,10.39h-1.42V333h4V327.7h18.18V333h3.92v-8.86h-2.26V291Zm-37,19.41c7.25-.05,10.14,1.17,10.14,7.84,0,3.82-2.25,6.71-7,6.71-6.12,0-7.44-4.07-7.1-8l-4.26-.05c-.15,6.82,2.59,11.76,10.92,11.76S491,323.93,491,316.92a8.87,8.87,0,0,0-7-8.87c4.41-1.42,5.79-4.41,5.79-8.47,0-5.64-4.07-9.36-10.34-9.36-7.21,0-10.39,4.41-10.39,10.34h4.16c.1-3.58,1.13-6.67,6.18-6.67,4.16,0,6,2.5,6,6.18,0,7.05-5.15,6.37-9,6.61ZM457.79,327.7V291h-4.07V327.7Zm-15-25.72c.19-6.57-3.43-11.76-10.39-11.76-10.44,0-11.66,10.39-11.66,18.67,0,8.77.39,19.69,11.71,19.69a9.3,9.3,0,0,0,8-4.11c1.76-2.55,1.91-4.8,2.15-7.79.1-.74.1-1.52.2-2.26h-4.07c-.1.84-.15,1.67-.24,2.5-.49,4-1.52,8-6.37,8-7.45,0-7.35-11.12-7.16-16.12,0-4.85.1-14.9,7.16-14.9,5.09,0,6.51,3.73,6.61,8.09ZM396.31,327.7V315l3.83-5,9.94,17.74h5L403,306.34,414.74,291h-5.1l-13.37,18.87V291H392.2V327.7Zm-16.23,0V291H376V327.7Zm-20.3-33.17v29.6H346.21c1.57-2.41,1.86-6.28,1.86-9.95V294.53ZM344.15,291v22.79c0,5.73-.44,9.26-2.69,10.39H340V333h4V327.7h18.18V333h3.92v-8.86h-2.25V291Zm-23.87,19.41c7.25-.05,10.14,1.17,10.14,7.84,0,3.82-2.25,6.71-7,6.71-6.12,0-7.45-4.07-7.1-8l-4.27-.05c-.14,6.82,2.6,11.76,10.93,11.76s11.76-4.65,11.76-11.66a8.87,8.87,0,0,0-7-8.87c4.41-1.42,5.78-4.41,5.78-8.47,0-5.64-4.06-9.36-10.34-9.36-7.2,0-10.38,4.41-10.38,10.34H317c.1-3.58,1.13-6.67,6.18-6.67,4.16,0,6,2.5,6,6.18,0,7.05-5.14,6.37-9,6.61ZM284.1,291h-4.51l11,22.49V327.7h4.07V313.44L305.81,291H301.3l-8.63,18.43Z"></path> <path class="cls-1" d="M88.15,306.58a20,20,0,0,0,8.46-12.65c.81-3.72.15-4.27-5.87-4.68l4.65-2.1c-.74-4.56-3.2-8-6.16-11.25a9.92,9.92,0,0,0-3.1-2.68c-5.5-2.16-5.26-7.66-7.07-11.92-.23-.56.65-2,1.37-2.5a127.26,127.26,0,0,1,12.44-8.09c7.24-3.82,15.14-5.72,23.8-6.85-3.35,7.72-4.54,15.29-1.53,23.76,5-13.33,12.77-23.54,25.12-30.07a37,37,0,0,0-1,24.33,60,60,0,0,1,12.62-20c.49-.53,4.23-6.92,3.67-7.72-.72-1-1.32-2.07-2.09-3a46.65,46.65,0,0,0-10.29-9.31c-4.77-3.23-10.19-5.6-15.57-8-4.71-2.1-9.57-3.86-14.49-5.78-2.51-1-5.09-1.92-7.67-2.89-1.58-.6-3.12-1.28-4.77-1.76-2.73-.81-5.29-1.85-7.91-2.78-5.13-1.83-10.21-3.69-15.27-5.69-2.51-1-4.95-2.14-7.56-3.05-5.68-2-12.43-5.43-17.78-8.07a108.52,108.52,0,0,1-11.47-6.4,90.77,90.77,0,0,1-7.75-5.62c-1.61-1.31-3.11-2.74-4.7-4.07a74.84,74.84,0,0,1-10.37-11.2C12.12,149.35,7,141.62,4.53,132.36c-1.16-4.31-2.39-8.92-3.11-13.25a107,107,0,0,1-.15-33.79c.5-3.17,1.24-6.36,1.94-9.49a80.33,80.33,0,0,1,4.86-14,92.14,92.14,0,0,1,14.1-22.77A102.65,102.65,0,0,1,56.51,12.91,134.56,134.56,0,0,1,95,1.63c4-.56,8.24-.86,12.21-1.22a129.28,129.28,0,0,1,13-.4c5.3,0,10.61.18,15.9.61A158.38,158.38,0,0,1,167.69,5.9c12.45,3.59,24.71,8.59,35.42,15.52a114.05,114.05,0,0,1,23.22,19.86c13.51,15.13,21.14,35.39,22.73,55.45-37-35.42-91.07-40.67-138.44-25.36C98.89,75.16,89.83,82.93,82.41,92.61a16.77,16.77,0,0,1-7.6,5.78c-9.87,3.81-17.67,10-20.72,20.7a26,26,0,0,0,1.1,18.24c5-2.17,9.61-4.84,14.58-6.22,10.49-2.91,21.18-2.36,31.73,0,7.49,1.69,16.51,2.78,26.67,4.61,25.61,4.63,55.35,15.18,78.54,32.21,21.56,15.83,46,46.81,36.56,75.27-2.42,7.3-7.1,14.22-14.46,20.64a49.14,49.14,0,0,1-22.23,11.27,63.81,63.81,0,0,1-7.51,1.21c-2.46.2-5,0-7.54.33,4,3,8.65,4.21,13.51,5.14a54.49,54.49,0,0,1-34.83,2c1.34,3.88,4.21,5.55,18.21,10.6a24.51,24.51,0,0,1-3.36,2,50.4,50.4,0,0,1-22.32,3.83,4.39,4.39,0,0,1-3-1.72c-3.53-5.52-8.21-9.28-14.74-10.64a5.14,5.14,0,0,1-2.33-1.91c-2.87-3.48-6.27-5.89-11-6.22-4.19-.29-4.76,0-6.19,4.09a2,2,0,0,1-1.12,1.27v-4.67a11.63,11.63,0,0,0-12.82,8.57c4.31-1.48,8.46-2.1,12.56.36.77.46,2.07,0,3.11.08,5.89.49,11.17,1.69,13.6,8.26,1,2.75,3.28,5,5,7.62-7.44,0-10.93-8.51-18-8.88,3.16,3.62,6.28,7.24,9.45,10.81,5.07,5.75,11.56,8.75,19.32,9.62.85,7.52,6,11.49,12.17,14.58,3.49,1.75,3.15-.07,3.94,4.72a19.85,19.85,0,0,0-2.11.62c-1.41.4-2.83.78-4.32,1.16a125.33,125.33,0,0,1-18.72,3.47c-5.45.57-10.9,1-16.37,1.23a186.86,186.86,0,0,1-34.69-1.85,136.44,136.44,0,0,1-33.28-8.92,108,108,0,0,1-17.63-9.33,100.46,100.46,0,0,1-12.08-9.37C16.81,298,8.18,281.13,3.7,258.93A202.9,202.9,0,0,1,.21,221.5c-.09-6.5,0-12.91-.08-19,27.06,0,43.82-1.66,66.56,17.46a5.47,5.47,0,0,0,4.13,1c8.19-1.85,14.84-6.47,20.74-12.27,4.09-4,4.65-4.13,10.61-.6-2.8,2.85-5.33,5.75-8.19,8.25s-6,4.53-9.4,7.1c6.76.33,12.57-1.8,19-3.83a8.25,8.25,0,0,1-1.1,1.55,87.26,87.26,0,0,1-24.08,13.2c-6.71,2.3-12.92.52-18.66-3.3a88.94,88.94,0,0,0-7.7-5c-1.82-1-4.09-1.92-6-1.64-3,.44-5.43-.5-8.08-1.61a23.86,23.86,0,0,0-15.44-1V227c-.93-1.6-1.32-2.73-2.09-3.47s-1.92-1.28-2.57-1c-5.29,2.08-9.67,5.25-11.47,11a15.93,15.93,0,0,0-.24,3.13c2-1.47,3.39-2.7,5-3.62,1.35-.79,2.9-1.74,4.36-1.73,7,0,14,.23,21.05.7,2,.14,4,1.42,6,2.48-4.06,1.11-8,2-11.51,5.56,8.54.29,14.56,3.87,19.89,9.29,2.46,2.5,5.92,4,8.77,6.14A13.71,13.71,0,0,1,63,259.19c2.29,3.73,3.61,8.57,6.8,11.12s4.71,5.35,6.33,8.88a21.1,21.1,0,0,0,7.67,8.49c5.52,3.5,6.41,8.23,5.57,13.93-.21,1.43-.66,2.83-1.17,5m87.17,9.95c4.72,1.76,8.8.3,12.87-1.73a6.8,6.8,0,0,1,4-.67c7.28,1.41,16,1.63,23.25-.94-.55.76-1.71,1.32-2.34,2a20.37,20.37,0,0,1-2.49,2c-1.94,1.52-4,2.9-5.89,4.24A61.51,61.51,0,0,1,184.11,331a6.55,6.55,0,0,1-4.92-1,34.74,34.74,0,0,1-11.52-15.57c4.1-3,8.72-3.9,13.57-4l.58.8ZM99.87,96c8.34-.83,10.67-7.07,16.13-9.36,6.94-2.92,14.78-4,21.41-1.48-4.72.37-8.82.86-9.75,2l0,2.26C128.64,96.9,113.56,102.49,99.87,96ZM10.92,217.71c4.46-1,8.48-1.06,12.34,1a4.31,4.31,0,0,0,2.76.19c5.35-1.23,10.24,0,15,2.48a4.93,4.93,0,0,0,2.9.67c3.82-.71,7,.52,10.16,2.53a97.6,97.6,0,0,0,10,6.06c2.31,1.12,5,1.37,7.57,2a92.12,92.12,0,0,0-8.16-6.17c-2.57-1.85-4.82-4.26-7.6-5.65-4.72-2.36-9.54-4.46-14.23-6.93-4.16-2.19-9.6-3.27-13.3,2.11-.36.53-1.2.73-1.83,1.08a3.61,3.61,0,0,1,.78-2c2.29-3.28,2.11-3.73-1.9-4.56-.51-.11-1-.24-1.55-.3C18.53,209.69,12.31,213.14,10.92,217.71Z"></path> </svg> 